<svg xmlns="http://www.w3.org/2000/svg" viewBox="0 0 676.48 676.48"><defs><style>.cls-1,.cls-2,.cls-3{fill:#fff;}.cls-1{fill-opacity:0.5;}.cls-1,.cls-3,.cls-4,.cls-6{stroke:#fff;stroke-miterlimit:10;stroke-width:4px;}.cls-4,.cls-6{fill:none;}.cls-4,.cls-5{opacity:0.5;}</style></defs><title>Data Science_1@SVG</title><g id="Layer_2" data-name="Layer 2"><g id="Data_Sci" data-name="Data Sci"><path class="cls-1" d="M338.64,674.48c-94.28,0-168.12-147.7-168.12-336.24S244.36,2,338.64,2,506.76,149.7,506.76,338.24,432.91,674.48,338.64,674.48Zm0-651.47c-79.74,0-147.11,144.36-147.11,315.23s67.36,315.23,147.11,315.23S485.74,509.11,485.74,338.24,418.38,23,338.64,23Z"/><path class="cls-1" d="M338.24,503.81C149.7,503.81,2,430,2,335.69S149.7,167.57,338.24,167.57s336.24,73.84,336.24,168.12S526.78,503.81,338.24,503.81Zm0-315.23C167.37,188.59,23,256,23,335.69S167.37,482.8,338.24,482.8s315.23-67.36,315.23-147.11S509.11,188.59,338.24,188.59Z"/><path class="cls-1" d="M179.66,604.68c-33.24,0-59.75-9.65-78.78-28.69C68.11,543.22,63.19,487.41,87,418.85c23-66,70.09-136.86,132.72-199.48,91-91,197.48-147.57,277.85-147.57,33.24,0,59.75,9.65,78.78,28.69,32.77,32.77,37.69,88.58,13.84,157.15-23,66-70.09,136.86-132.72,199.48C366.49,548.14,260,604.68,179.66,604.68ZM497.61,92.81c-73.86,0-177.09,55.51-263,141.41-60.42,60.42-105.79,128.44-127.73,191.53C85.83,486.29,89,534.37,115.74,561.14c14.95,14.94,36.45,22.53,63.92,22.53,73.86,0,177.09-55.51,263-141.41,60.42-60.42,105.79-128.44,127.73-191.53,21.06-60.54,17.91-108.62-8.86-135.39C546.58,100.4,525.08,92.81,497.61,92.81Z"/><path class="cls-1" d="M497.61,604.68c-80.37,0-186.83-56.54-277.85-147.57C157.13,394.5,110,323.65,87,257.63c-23.85-68.57-18.93-124.38,13.84-157.15,18.76-18.76,46-28.69,78.78-28.69,80.37,0,186.83,56.54,277.85,147.57C520.14,282,567.27,352.83,590.23,418.85c23.85,68.57,18.93,124.38-13.84,157.15C557.63,594.76,530.38,604.68,497.61,604.68ZM179.66,92.81c-27.47,0-49,7.58-63.92,22.53C89,142.11,85.83,190.19,106.88,250.73c21.94,63.09,67.31,131.11,127.73,191.53,85.9,85.9,189.13,141.41,263,141.41,27.47,0,49-7.58,63.92-22.53,26.77-26.77,29.91-74.85,8.86-135.39-21.94-63.09-67.31-131.11-127.73-191.53C356.75,148.32,253.52,92.81,179.66,92.81Z"/><path class="cls-2" d="M338.64,317.23c-41.77,0-84.06-14.44-84.06-42s42.29-42,84.06-42,84.06,14.44,84.06,42S380.41,317.23,338.64,317.23Zm0-63c-39.11,0-63,13.61-63,21s23.93,21,63,21,63-13.61,63-21S377.75,254.18,338.64,254.18Z"/><path class="cls-2" d="M338.64,359.26c-41.77,0-84.06-14.44-84.06-42h21c0,7.41,23.93,21,63,21s63-13.61,63-21h21C422.7,344.82,380.41,359.26,338.64,359.26Z"/><path class="cls-2" d="M338.64,401.29c-41.77,0-84.06-14.44-84.06-42h21c0,7.41,23.93,21,63,21s63-13.61,63-21h21C422.7,386.85,380.41,401.29,338.64,401.29Z"/><path class="cls-2" d="M338.64,443.32c-41.77,0-84.06-14.44-84.06-42V275.2h21V401.29c0,7.41,23.93,21,63,21s63-13.61,63-21V275.2h21V401.29C422.7,428.88,380.41,443.32,338.64,443.32Z"/><rect class="cls-3" x="517.26" y="138.6" width="21.02" height="21.02"/><rect class="cls-3" x="517.26" y="516.87" width="21.02" height="21.02"/><rect class="cls-3" x="138.99" y="516.87" width="21.02" height="21.02"/><rect class="cls-3" x="138.99" y="138.6" width="21.02" height="21.02"/><line class="cls-4" x1="141.78" y1="76.91" x2="138.99" y2="100.06"/><line class="cls-4" x1="124.1" y1="83.81" x2="158.24" y2="94.55"/><line class="cls-4" x1="168.67" y1="71.8" x2="164.12" y2="93.7"/><line class="cls-4" x1="141.78" y1="76.91" x2="211.07" y2="95.79"/><line class="cls-4" x1="210.46" y1="74.33" x2="181.5" y2="92.81"/><line class="cls-4" x1="181.67" y1="71.81" x2="185.52" y2="92.93"/><line class="cls-4" x1="137.04" y1="78.39" x2="124.85" y2="107.71"/><line class="cls-4" x1="158.24" y1="94.55" x2="102.74" y2="98.69"/><line class="cls-4" x1="117" y1="88.49" x2="124.85" y2="107.71"/><line class="cls-4" x1="102.74" y1="98.69" x2="100.85" y2="137.49"/><line class="cls-4" x1="81.44" y1="129.46" x2="124.85" y2="107.71"/><g class="cls-5"><line class="cls-6" x1="81.44" y1="129.46" x2="95.3" y2="155.63"/></g><line class="cls-4" x1="75.23" y1="149.11" x2="98.13" y2="144.76"/><line class="cls-4" x1="73.95" y1="155.82" x2="93.1" y2="170.12"/><line class="cls-4" x1="95.3" y1="155.63" x2="78.12" y2="227.12"/><line class="cls-4" x1="75.23" y1="149.11" x2="94.85" y2="202.79"/><line class="cls-4" x1="72.14" y1="194.61" x2="100.85" y2="137.49"/><line class="cls-4" x1="72.14" y1="172.36" x2="96.14" y2="210.77"/><line class="cls-4" x1="74.1" y1="205.87" x2="93.1" y2="191.14"/><line class="cls-4" x1="96.14" y1="210.77" x2="74.1" y2="205.87"/><line class="cls-4" x1="78.12" y1="227.12" x2="97.62" y2="218.17"/><line class="cls-4" x1="96.14" y1="210.77" x2="93.1" y2="273.78"/><line class="cls-4" x1="78.12" y1="227.12" x2="105.25" y2="245.91"/><line class="cls-4" x1="99.38" y1="225.74" x2="79.92" y2="234.36"/><line class="cls-4" x1="96.14" y1="210.77" x2="124.95" y2="337.19"/><line class="cls-4" x1="82.11" y1="242.27" x2="108.59" y2="255.52"/><line class="cls-4" x1="93.1" y1="109.38" x2="74.1" y2="205.87"/><line class="cls-4" x1="102.74" y1="98.69" x2="115.74" y2="115.34"/><line class="cls-4" x1="108.59" y1="255.52" x2="101.79" y2="293.79"/><line class="cls-4" x1="93.1" y1="273.78" x2="120.93" y2="285.12"/><line class="cls-4" x1="101.79" y1="293.79" x2="130.49" y2="304.31"/><line class="cls-4" x1="124.05" y1="291.66" x2="110.55" y2="311.51"/><line class="cls-4" x1="138.21" y1="318.31" x2="110.55" y2="311.51"/><line class="cls-4" x1="134.45" y1="311.63" x2="180.31" y2="414.18"/><line class="cls-4" x1="177.59" y1="377.25" x2="157.38" y2="385.33"/><line class="cls-4" x1="124.95" y1="337.19" x2="130.49" y2="304.31"/><line class="cls-4" x1="138.21" y1="318.31" x2="138.93" y2="359.26"/><line class="cls-4" x1="130.42" y1="346.11" x2="138.21" y2="318.31"/><line class="cls-4" x1="124.95" y1="337.19" x2="163.45" y2="357.92"/><line class="cls-4" x1="138.93" y1="359.26" x2="163.45" y2="357.92"/><line class="cls-4" x1="157.38" y1="385.33" x2="163.45" y2="357.92"/><line class="cls-4" x1="145.57" y1="368.99" x2="177.59" y2="377.25"/><line class="cls-4" x1="180.31" y1="414.18" x2="193.17" y2="395.27"/><line class="cls-4" x1="177.59" y1="377.25" x2="190.61" y2="426.12"/><line class="cls-4" x1="188.07" y1="390.59" x2="204.38" y2="441.24"/><line class="cls-4" x1="214.39" y1="421.13" x2="180.31" y2="414.18"/><line class="cls-4" x1="206.58" y1="412.46" x2="293.1" y2="520.69"/><line class="cls-4" x1="307.01" y1="504.66" x2="264.53" y2="498.12"/><line class="cls-4" x1="262.92" y1="468.93" x2="249.84" y2="485.46"/><line class="cls-4" x1="217.06" y1="425.57" x2="208.22" y2="445.3"/><line class="cls-4" x1="214.39" y1="421.13" x2="219.76" y2="457.12"/><line class="cls-4" x1="204.38" y1="441.24" x2="236.82" y2="444.45"/><line class="cls-4" x1="228.86" y1="436.43" x2="219.76" y2="457.12"/><line class="cls-4" x1="262.92" y1="468.93" x2="219.76" y2="457.12"/><line class="cls-4" x1="247.37" y1="454.67" x2="242.47" y2="478.83"/><line class="cls-4" x1="278.8" y1="482.56" x2="249.84" y2="485.46"/><line class="cls-4" x1="293.1" y1="520.69" x2="300.12" y2="499.5"/><line class="cls-4" x1="289.19" y1="491.01" x2="264.53" y2="498.12"/><line class="cls-4" x1="310.64" y1="533.26" x2="289.19" y2="491.01"/><line class="cls-4" x1="293.1" y1="520.69" x2="375.08" y2="547.54"/><line class="cls-4" x1="329.12" y1="520.17" x2="310.64" y2="533.26"/><line class="cls-4" x1="293.1" y1="520.69" x2="329.12" y2="520.17"/><line class="cls-4" x1="307.01" y1="504.66" x2="354.64" y2="560.66"/><line class="cls-4" x1="330.82" y1="546.56" x2="344.87" y2="530.28"/><line class="cls-4" x1="353.67" y1="534.12" x2="354.64" y2="560.66"/><line class="cls-4" x1="378.66" y1="549.39" x2="354.15" y2="558.11"/><line class="cls-4" x1="375.08" y1="547.54" x2="376.44" y2="572.05"/><line class="cls-4" x1="366.4" y1="566.99" x2="375.08" y2="547.54"/><line class="cls-4" x1="376.44" y1="572.05" x2="467.09" y2="580.85"/><line class="cls-4" x1="385.75" y1="552.94" x2="404.99" y2="584.68"/><line class="cls-4" x1="421.77" y1="568.38" x2="376.44" y2="572.05"/><line class="cls-4" x1="400.48" y1="559.79" x2="395.37" y2="580.72"/><line class="cls-4" x1="421.77" y1="568.38" x2="404.99" y2="584.68"/><line class="cls-4" x1="467.09" y1="580.85" x2="426.87" y2="592.51"/><line class="cls-4" x1="421.77" y1="568.38" x2="466.66" y2="602.13"/><line class="cls-4" x1="447.53" y1="576.53" x2="444.22" y2="597.48"/><line class="cls-4" x1="426.87" y1="592.51" x2="421.77" y2="568.38"/><line class="cls-4" x1="417.53" y1="589.37" x2="497.61" y2="583.67"/><line class="cls-4" x1="475.94" y1="582.2" x2="485.74" y2="604.28"/><line class="cls-4" x1="466.66" y1="602.13" x2="497.61" y2="583.67"/><line class="cls-4" x1="504.16" y1="604.54" x2="497.61" y2="583.67"/><line class="cls-4" x1="566.79" y1="555.2" x2="519.42" y2="603.1"/><line class="cls-4" x1="504.16" y1="604.54" x2="478.12" y2="582.47"/><line class="cls-4" x1="485.74" y1="604.28" x2="512.67" y2="583.67"/><line class="cls-4" x1="519.42" y1="603.1" x2="512.67" y2="583.67"/><line class="cls-4" x1="545.1" y1="596.29" x2="512.67" y2="583.67"/><line class="cls-4" x1="561.53" y1="561.14" x2="563.62" y2="586.52"/><line class="cls-4" x1="547.5" y1="570.26" x2="552.7" y2="592.9"/><line class="cls-4" x1="545.1" y1="596.29" x2="561.53" y2="561.14"/><line class="cls-4" x1="605.13" y1="495.94" x2="574.82" y2="542.42"/><line class="cls-4" x1="582.82" y1="568.81" x2="561.53" y2="561.14"/><line class="cls-4" x1="578.85" y1="532.66" x2="586.74" y2="563.54"/><line class="cls-4" x1="569.64" y1="551.34" x2="586.74" y2="563.54"/><line class="cls-4" x1="563.62" y1="586.52" x2="578.85" y2="532.66"/><line class="cls-4" x1="596.36" y1="545.74" x2="569.64" y2="551.34"/><line class="cls-4" x1="584.17" y1="512.14" x2="604.26" y2="513.65"/><line class="cls-4" x1="578.85" y1="532.66" x2="596.36" y2="545.74"/><line class="cls-4" x1="584.17" y1="512.14" x2="596.36" y2="545.74"/><line class="cls-4" x1="597.03" y1="440.89" x2="584.17" y2="512.14"/><line class="cls-4" x1="605.13" y1="495.94" x2="584.17" y2="497.61"/><line class="cls-4" x1="575.41" y1="441.54" x2="603.55" y2="473.47"/><line class="cls-4" x1="593.11" y1="427.52" x2="583" y2="478.16"/><line class="cls-4" x1="605.13" y1="495.94" x2="575.41" y2="441.54"/><line class="cls-4" x1="604.26" y1="513.65" x2="569.64" y2="551.34"/><line class="cls-4" x1="593.11" y1="427.52" x2="563.79" y2="408.35"/><line class="cls-4" x1="575.41" y1="441.54" x2="593.11" y2="427.52"/><line class="cls-4" x1="584.17" y1="402.71" x2="575.41" y2="441.54"/><line class="cls-4" x1="552.27" y1="382.89" x2="584.17" y2="402.71"/><line class="cls-4" x1="573.74" y1="379" x2="563.79" y2="408.35"/><line class="cls-4" x1="584.17" y1="402.71" x2="570.39" y2="425.75"/><line class="cls-4" x1="573.74" y1="379" x2="570.39" y2="425.75"/><line class="cls-4" x1="552.27" y1="382.89" x2="567.42" y2="366.31"/><line class="cls-4" x1="573.74" y1="379" x2="544.31" y2="367.56"/><line class="cls-4" x1="559.02" y1="350.79" x2="544.31" y2="367.56"/><line class="cls-4" x1="567.42" y1="366.31" x2="529.67" y2="342.5"/><line class="cls-4" x1="551.66" y1="338.28" x2="544.31" y2="367.56"/><line class="cls-4" x1="567.42" y1="366.31" x2="544.31" y2="367.56"/><line class="cls-4" x1="529.67" y1="342.5" x2="543.72" y2="325.44"/><line class="cls-4" x1="551.66" y1="338.28" x2="522.06" y2="330.67"/><line class="cls-4" x1="526.72" y1="300.45" x2="522.5" y2="327.61"/><line class="cls-4" x1="536.69" y1="314.77" x2="522.06" y2="330.67"/><line class="cls-4" x1="543.72" y1="325.44" x2="512.88" y2="317.23"/><line class="cls-4" x1="520.05" y1="291.36" x2="512.88" y2="317.23"/><line class="cls-4" x1="526.72" y1="300.45" x2="500.52" y2="300.34"/><line class="cls-4" x1="511.22" y1="279.83" x2="510.61" y2="314.03"/><line class="cls-4" x1="491.59" y1="288.87" x2="511.22" y2="279.83"/><line class="cls-4" x1="500.52" y1="300.34" x2="502.36" y2="268.78"/><line class="cls-4" x1="457.51" y1="219.36" x2="500.52" y2="300.34"/><line class="cls-4" x1="418.3" y1="211.09" x2="457.51" y2="219.36"/><line class="cls-4" x1="344.85" y1="128.92" x2="467.88" y2="260.86"/><line class="cls-4" x1="210.46" y1="74.33" x2="252.5" y2="107.02"/><line class="cls-4" x1="211.07" y1="95.79" x2="302.78" y2="105.39"/><line class="cls-4" x1="265.46" y1="89.18" x2="327.29" y2="143.07"/><line class="cls-4" x1="324.31" y1="116.76" x2="357.37" y2="162.6"/><line class="cls-4" x1="424.3" y1="188.26" x2="277.88" y2="117.17"/><line class="cls-4" x1="494.89" y1="259.85" x2="464.36" y2="257.09"/><line class="cls-4" x1="457.51" y1="219.36" x2="464.36" y2="257.09"/><line class="cls-4" x1="488.7" y1="252.68" x2="473.08" y2="266.73"/><line class="cls-4" x1="482.94" y1="278.27" x2="502.36" y2="268.78"/><line class="cls-4" x1="494.89" y1="259.85" x2="482.94" y2="278.27"/><line class="cls-4" x1="457.51" y1="219.36" x2="446.62" y2="238.23"/><line class="cls-4" x1="439.64" y1="202.12" x2="446.62" y2="238.23"/><line class="cls-4" x1="411.31" y1="204.87" x2="439.64" y2="202.12"/><line class="cls-4" x1="424.3" y1="188.26" x2="423.99" y2="213.79"/><line class="cls-4" x1="446.62" y1="238.23" x2="466.76" y2="228.79"/><line class="cls-4" x1="389.25" y1="159.61" x2="381.85" y2="180.59"/><line class="cls-4" x1="380.17" y1="152.71" x2="399.64" y2="194.89"/><line class="cls-4" x1="424.3" y1="188.26" x2="381.85" y2="180.59"/><line class="cls-4" x1="358.78" y1="137.9" x2="347.91" y2="156.16"/><line class="cls-4" x1="311.44" y1="109.79" x2="289.28" y2="122.71"/><line class="cls-4" x1="318.13" y1="113.35" x2="319.7" y2="138.6"/><line class="cls-4" x1="375.01" y1="149.11" x2="347.91" y2="156.16"/><line class="cls-4" x1="344.85" y1="128.92" x2="319.7" y2="138.6"/><line class="cls-4" x1="318.13" y1="113.35" x2="289.28" y2="122.71"/><line class="cls-4" x1="283.89" y1="96.62" x2="289.28" y2="122.71"/><line class="cls-4" x1="265.46" y1="89.18" x2="243.19" y2="100.59"/><line class="cls-4" x1="210.46" y1="74.33" x2="205.62" y2="94.88"/><line class="cls-4" x1="179.66" y1="71.8" x2="243.19" y2="100.59"/><line class="cls-4" x1="164.12" y1="93.7" x2="153.29" y2="74.15"/><line class="cls-4" x1="179.66" y1="71.8" x2="127.72" y2="105.82"/><line class="cls-4" x1="195.98" y1="72.54" x2="202.62" y2="93.49"/><line class="cls-4" x1="205.62" y1="94.88" x2="239.47" y2="80.71"/><line class="cls-4" x1="257.56" y1="86.35" x2="239.17" y2="100.59"/><line class="cls-4" x1="270.77" y1="114.1" x2="239.47" y2="80.71"/><line class="cls-4" x1="279.83" y1="94.88" x2="270.77" y2="114.1"/><line class="cls-4" x1="265.46" y1="89.18" x2="286.59" y2="121.4"/><line class="cls-4" x1="344.85" y1="128.92" x2="286.59" y2="121.4"/><line class="cls-4" x1="384.23" y1="14.21" x2="365.88" y2="28.61"/><line class="cls-4" x1="366.85" y1="6.59" x2="383.39" y2="38.32"/><line class="cls-4" x1="406.85" y1="29.6" x2="388.15" y2="41.87"/><line class="cls-4" x1="384.23" y1="14.21" x2="419.88" y2="76.55"/><line class="cls-4" x1="434.62" y1="60.95" x2="401.07" y2="53.54"/><line class="cls-4" x1="416.04" y1="38.81" x2="403.83" y2="56.46"/><line class="cls-4" x1="379.82" y1="11.9" x2="350.48" y2="24.01"/><line class="cls-4" x1="383.39" y1="38.32" x2="341.22" y2="2"/><line class="cls-4" x1="358.52" y1="4.87" x2="350.48" y2="24.01"/><line class="cls-4" x1="341.22" y1="2" x2="312.45" y2="28.11"/><line class="cls-4" x1="304.4" y1="8.7" x2="350.48" y2="24.01"/><g class="cls-5"><line class="cls-6" x1="304.4" y1="8.7" x2="295.69" y2="37"/></g><line class="cls-4" x1="286.12" y1="18.2" x2="305.38" y2="31.32"/><line class="cls-4" x1="280.46" y1="22.04" x2="283.89" y2="45.69"/><line class="cls-4" x1="295.69" y1="37" x2="233" y2="75.4"/><line class="cls-4" x1="286.12" y1="18.2" x2="262.03" y2="70.04"/><line class="cls-4" x1="251.76" y1="48.19" x2="312.45" y2="28.11"/><line class="cls-4" x1="267.49" y1="32.46" x2="257.3" y2="76.59"/><line class="cls-4" x1="245.19" y1="57.54" x2="269.03" y2="60.55"/><line class="cls-4" x1="257.3" y1="76.59" x2="245.19" y2="57.54"/><line class="cls-4" x1="233" y1="75.4" x2="253.11" y2="82.87"/><line class="cls-4" x1="257.3" y1="76.59" x2="210.6" y2="118.99"/><line class="cls-4" x1="233" y1="75.4" x2="238.9" y2="107.88"/><line class="cls-4" x1="249.01" y1="89.47" x2="229.15" y2="81.79"/><line class="cls-4" x1="257.3" y1="76.59" x2="188.28" y2="186.35"/><line class="cls-4" x1="225.11" y1="88.95" x2="234.46" y2="117.04"/><line class="cls-4" x1="326.84" y1="2.74" x2="245.19" y2="57.54"/><line class="cls-4" x1="341.22" y1="2" x2="338.64" y2="22.97"/><line class="cls-4" x1="234.46" y1="117.04" x2="202.6" y2="139.29"/><line class="cls-4" x1="210.6" y1="118.99" x2="222.26" y2="146.69"/><line class="cls-4" x1="202.6" y1="139.29" x2="215.45" y2="167.02"/><line class="cls-4" x1="219.84" y1="153.52" x2="196.25" y2="158.01"/><line class="cls-4" x1="211.01" y1="182.38" x2="196.25" y2="158.01"/><line class="cls-4" x1="213.07" y1="175" x2="172.98" y2="279.94"/><line class="cls-4" x1="197.18" y1="251.9" x2="177.17" y2="243.33"/><line class="cls-4" x1="188.28" y1="186.35" x2="215.45" y2="167.02"/><line class="cls-4" x1="211.01" y1="182.38" x2="182.56" y2="211.84"/><line class="cls-4" x1="185.84" y1="196.53" x2="211.01" y2="182.38"/><line class="cls-4" x1="188.28" y1="186.35" x2="200.84" y2="228.24"/><line class="cls-4" x1="182.56" y1="211.84" x2="200.84" y2="228.24"/><line class="cls-4" x1="177.17" y1="243.33" x2="200.84" y2="228.24"/><line class="cls-4" x1="180.37" y1="223.42" x2="197.18" y2="251.9"/><line class="cls-4" x1="172.98" y1="279.94" x2="195.45" y2="275.66"/><line class="cls-4" x1="197.18" y1="251.9" x2="171.82" y2="295.66"/><line class="cls-4" x1="195.15" y1="268.75" x2="170.87" y2="316.09"/><line class="cls-4" x1="192.16" y1="308.95" x2="172.98" y2="279.94"/><line class="cls-4" x1="192.77" y1="297.3" x2="177.43" y2="435.01"/><line class="cls-4" x1="198.6" y1="433.51" x2="173.18" y2="398.85"/><line class="cls-4" x1="192.69" y1="377.07" x2="171.75" y2="379.51"/><line class="cls-4" x1="190.91" y1="313.98" x2="170.71" y2="321.68"/><line class="cls-4" x1="192.16" y1="308.95" x2="170.52" y2="338.19"/><line class="cls-4" x1="170.87" y1="316.09" x2="191.54" y2="341.3"/><line class="cls-4" x1="191.58" y1="330" x2="170.52" y2="338.19"/><line class="cls-4" x1="192.69" y1="377.07" x2="170.52" y2="338.19"/><line class="cls-4" x1="191.77" y1="355.99" x2="171.23" y2="369.6"/><line class="cls-4" x1="194.27" y1="397.93" x2="171.75" y2="379.51"/><line class="cls-4" x1="177.43" y1="435.01" x2="197.37" y2="424.99"/><line class="cls-4" x1="195.65" y1="411.26" x2="173.18" y2="398.85"/><line class="cls-4" x1="180.94" y1="456.3" x2="195.65" y2="411.26"/><line class="cls-4" x1="177.43" y1="435.01" x2="216.41" y2="511.96"/><line class="cls-4" x1="203.26" y1="460.11" x2="180.94" y2="456.3"/><line class="cls-4" x1="177.43" y1="435.01" x2="203.26" y2="460.11"/><line class="cls-4" x1="198.6" y1="433.51" x2="192.67" y2="506.78"/><line class="cls-4" x1="185.81" y1="479.98" x2="207.25" y2="478.4"/><line class="cls-4" x1="210.76" y1="487.33" x2="192.67" y2="506.78"/><line class="cls-4" x1="217.63" y1="515.8" x2="194.14" y2="504.63"/><line class="cls-4" x1="216.41" y1="511.96" x2="200.04" y2="530.26"/><line class="cls-4" x1="196.52" y1="519.58" x2="216.41" y2="511.96"/><line class="cls-4" x1="200.04" y1="530.26" x2="257.92" y2="600.58"/><line class="cls-4" x1="220.13" y1="523.33" x2="211.29" y2="559.37"/><line class="cls-4" x1="234.68" y1="559.71" x2="200.04" y2="530.26"/><line class="cls-4" x1="225.71" y1="538.59" x2="207.29" y2="549.77"/><line class="cls-4" x1="234.68" y1="559.71" x2="211.29" y2="559.37"/><line class="cls-4" x1="257.92" y1="600.58" x2="221.23" y2="580.38"/><line class="cls-4" x1="234.68" y1="559.71" x2="242.57" y2="615.32"/><line class="cls-4" x1="247.14" y1="583.69" x2="229.98" y2="596.16"/><line class="cls-4" x1="221.23" y1="580.38" x2="234.68" y2="559.71"/><line class="cls-4" x1="216.84" y1="571.56" x2="277.5" y2="624.15"/><line class="cls-4" x1="263.22" y1="607.79" x2="254.53" y2="630.33"/><line class="cls-4" x1="242.57" y1="615.32" x2="277.5" y2="624.15"/><line class="cls-4" x1="267.38" y1="643.55" x2="277.5" y2="624.15"/><line class="cls-4" x1="346.55" y1="652.94" x2="279.18" y2="653.31"/><line class="cls-4" x1="267.38" y1="643.55" x2="264.57" y2="609.53"/><line class="cls-4" x1="254.53" y1="630.33" x2="288.15" y2="634.8"/><line class="cls-4" x1="279.18" y1="653.31" x2="288.15" y2="634.8"/><line class="cls-4" x1="302.15" y1="666.65" x2="288.15" y2="634.8"/><line class="cls-4" x1="338.63" y1="653.42" x2="322.16" y2="672.84"/><line class="cls-4" x1="322.26" y1="649.94" x2="309.93" y2="669.63"/><line class="cls-4" x1="302.15" y1="666.65" x2="338.63" y2="653.42"/><line class="cls-4" x1="415.56" y1="638.14" x2="361.26" y2="649.58"/><line class="cls-4" x1="348.27" y1="673.9" x2="338.63" y2="653.42"/><line class="cls-4" x1="371.02" y1="645.52" x2="354.76" y2="672.95"/><line class="cls-4" x1="351.3" y1="652.22" x2="354.76" y2="672.95"/><line class="cls-4" x1="322.16" y1="672.84" x2="371.02" y2="645.52"/><line class="cls-4" x1="374.15" y1="667.16" x2="351.3" y2="652.22"/><line class="cls-4" x1="389.29" y1="634.78" x2="402.43" y2="650.06"/><line class="cls-4" x1="371.02" y1="645.52" x2="374.15" y2="667.16"/><line class="cls-4" x1="389.29" y1="634.78" x2="374.15" y2="667.16"/><line class="cls-4" x1="448.76" y1="593.49" x2="389.29" y2="634.78"/><line class="cls-4" x1="415.56" y1="638.14" x2="399.57" y2="624.5"/><line class="cls-4" x1="433.02" y1="578.66" x2="430.33" y2="621.14"/><line class="cls-4" x1="455.45" y1="581.26" x2="412.49" y2="609.92"/><line class="cls-4" x1="415.56" y1="638.14" x2="433.02" y2="578.66"/><line class="cls-4" x1="402.43" y1="650.06" x2="351.3" y2="652.22"/><line class="cls-4" x1="455.45" y1="581.26" x2="448.27" y2="546.98"/><line class="cls-4" x1="433.02" y1="578.66" x2="455.45" y2="581.26"/><line class="cls-4" x1="466.67" y1="557.4" x2="433.02" y2="578.66"/><line class="cls-4" x1="458.13" y1="520.83" x2="466.67" y2="557.4"/><line class="cls-4" x1="476.05" y1="533.26" x2="448.27" y2="546.98"/><line class="cls-4" x1="466.67" y1="557.4" x2="440.63" y2="563.95"/><line class="cls-4" x1="476.05" y1="533.26" x2="440.63" y2="563.95"/><line class="cls-4" x1="458.13" y1="520.83" x2="480.56" y2="519.82"/><line class="cls-4" x1="476.05" y1="533.26" x2="463.33" y2="504.36"/><line class="cls-4" x1="485.59" y1="502.91" x2="463.33" y2="504.36"/><line class="cls-4" x1="480.56" y1="519.82" x2="470.7" y2="476.29"/><line class="cls-4" x1="489.24" y1="488.85" x2="463.33" y2="504.36"/><line class="cls-4" x1="480.56" y1="519.82" x2="463.33" y2="504.36"/><line class="cls-4" x1="470.7" y1="476.29" x2="492.7" y2="474.16"/><line class="cls-4" x1="489.24" y1="488.85" x2="473.69" y2="462.54"/><line class="cls-4" x1="498.35" y1="444.47" x2="476.17" y2="460.69"/><line class="cls-4" x1="495.28" y1="461.65" x2="473.69" y2="462.54"/><line class="cls-4" x1="492.7" y1="474.16" x2="476.7" y2="446.54"/><line class="cls-4" x1="500.06" y1="433.32" x2="476.7" y2="446.54"/><line class="cls-4" x1="498.35" y1="444.47" x2="479.9" y2="425.86"/><line class="cls-4" x1="501.97" y1="418.92" x2="477.36" y2="442.68"/><line class="cls-4" x1="481.7" y1="411.44" x2="501.97" y2="418.92"/><line class="cls-4" x1="479.9" y1="425.86" x2="503.52" y2="404.85"/><line class="cls-4" x1="506.75" y1="338.19" x2="479.9" y2="425.86"/><line class="cls-4" x1="484.88" y1="304.62" x2="506.75" y2="338.19"/><line class="cls-4" x1="491.04" y1="194.57" x2="484.74" y2="374.87"/><line class="cls-4" x1="434.62" y1="60.95" x2="441.23" y2="113.78"/><line class="cls-4" x1="419.88" y1="76.55" x2="477.93" y2="148.19"/><line class="cls-4" x1="463" y1="110.34" x2="468.61" y2="192.17"/><line class="cls-4" x1="485.12" y1="171.45" x2="476.08" y2="227.25"/><line class="cls-4" x1="505.26" y1="292.72" x2="451.99" y2="138.91"/><line class="cls-4" x1="504.56" y1="393.26" x2="484.92" y2="369.71"/><line class="cls-4" x1="506.75" y1="338.19" x2="484.92" y2="369.71"/><line class="cls-4" x1="505.25" y1="383.81" x2="484.27" y2="382.69"/><line class="cls-4" x1="483.08" y1="397.83" x2="503.52" y2="404.85"/><line class="cls-4" x1="504.56" y1="393.26" x2="483.08" y2="397.83"/><line class="cls-4" x1="506.75" y1="338.19" x2="485.71" y2="343.83"/><line class="cls-4" x1="506.31" y1="313.37" x2="485.71" y2="343.83"/><line class="cls-4" x1="484.33" y1="295.28" x2="506.31" y2="313.37"/><line class="cls-4" x1="505.26" y1="292.72" x2="486.99" y2="310.55"/><line class="cls-4" x1="485.71" y1="343.83" x2="506.63" y2="351.4"/><line class="cls-4" x1="500.74" y1="247.68" x2="480.67" y2="257.27"/><line class="cls-4" x1="499.19" y1="236.37" x2="483.13" y2="279.96"/><line class="cls-4" x1="505.26" y1="292.72" x2="480.67" y2="257.27"/><line class="cls-4" x1="494.54" y1="210.78" x2="473.95" y2="216"/><line class="cls-4" x1="480.94" y1="157.42" x2="456.14" y2="150.89"/><line class="cls-4" x1="483.16" y1="164.67" x2="466.42" y2="183.64"/><line class="cls-4" x1="498.09" y1="230.18" x2="473.95" y2="216"/><line class="cls-4" x1="491.04" y1="194.57" x2="466.42" y2="183.64"/><line class="cls-4" x1="483.16" y1="164.67" x2="456.14" y2="150.89"/><line class="cls-4" x1="470.78" y1="128.63" x2="456.14" y2="150.89"/><line class="cls-4" x1="463" y1="110.34" x2="439.19" y2="102.66"/><line class="cls-4" x1="434.62" y1="60.95" x2="416.65" y2="72.06"/><line class="cls-4" x1="414.63" y1="37.38" x2="439.19" y2="102.66"/><line class="cls-4" x1="388.15" y1="41.87" x2="394.31" y2="20.4"/><line class="cls-4" x1="414.63" y1="37.38" x2="353.84" y2="24.71"/><line class="cls-4" x1="425.64" y1="49.44" x2="415.53" y2="68.95"/><line class="cls-4" x1="416.65" y1="72.06" x2="450.62" y2="85.97"/><line class="cls-4" x1="459.42" y1="102.75" x2="436.34" y2="99.81"/><line class="cls-4" x1="449.14" y1="131.71" x2="450.62" y2="85.97"/><line class="cls-4" x1="469.13" y1="124.54" x2="449.14" y2="131.71"/><line class="cls-4" x1="463" y1="110.34" x2="455.16" y2="148.06"/><line class="cls-4" x1="491.04" y1="194.57" x2="455.16" y2="148.06"/><line class="cls-4" x1="600.01" y1="141.43" x2="576.86" y2="138.65"/><line class="cls-4" x1="593.12" y1="123.76" x2="582.37" y2="157.9"/><line class="cls-4" x1="605.13" y1="168.32" x2="583.23" y2="163.77"/><line class="cls-4" x1="600.01" y1="141.43" x2="581.14" y2="210.73"/><line class="cls-4" x1="602.59" y1="210.12" x2="584.11" y2="181.15"/><line class="cls-4" x1="605.11" y1="181.32" x2="584" y2="185.17"/><line class="cls-4" x1="598.53" y1="136.69" x2="569.22" y2="124.51"/><line class="cls-4" x1="582.37" y1="157.9" x2="578.23" y2="102.39"/><line class="cls-4" x1="588.44" y1="116.65" x2="569.22" y2="124.51"/><line class="cls-4" x1="578.23" y1="102.39" x2="539.43" y2="100.51"/><line class="cls-4" x1="547.46" y1="81.09" x2="569.22" y2="124.51"/><g class="cls-5"><line class="cls-6" x1="547.46" y1="81.09" x2="521.29" y2="94.95"/></g><line class="cls-4" x1="527.82" y1="74.89" x2="532.17" y2="97.78"/><line class="cls-4" x1="521.1" y1="73.6" x2="506.8" y2="92.75"/><line class="cls-4" x1="521.29" y1="94.95" x2="449.81" y2="77.77"/><line class="cls-4" x1="527.82" y1="74.89" x2="474.13" y2="94.5"/><line class="cls-4" x1="482.32" y1="71.8" x2="539.43" y2="100.51"/><line class="cls-4" x1="504.57" y1="71.8" x2="466.15" y2="95.8"/><line class="cls-4" x1="471.06" y1="73.76" x2="485.79" y2="92.75"/><line class="cls-4" x1="466.15" y1="95.8" x2="471.06" y2="73.76"/><line class="cls-4" x1="449.81" y1="77.77" x2="458.75" y2="97.27"/><line class="cls-4" x1="466.15" y1="95.8" x2="403.15" y2="92.75"/><line class="cls-4" x1="449.81" y1="77.77" x2="431.01" y2="104.91"/><line class="cls-4" x1="451.19" y1="99.04" x2="442.57" y2="79.57"/><line class="cls-4" x1="466.15" y1="95.8" x2="339.74" y2="124.6"/><line class="cls-4" x1="434.65" y1="81.77" x2="421.41" y2="108.25"/><line class="cls-4" x1="567.54" y1="92.75" x2="471.06" y2="73.76"/><line class="cls-4" x1="578.23" y1="102.39" x2="561.58" y2="115.39"/><line class="cls-4" x1="421.41" y1="108.25" x2="383.14" y2="101.45"/><line class="cls-4" x1="403.15" y1="92.75" x2="391.81" y2="120.58"/><line class="cls-4" x1="383.14" y1="101.45" x2="372.62" y2="130.14"/><line class="cls-4" x1="385.26" y1="123.7" x2="365.41" y2="110.2"/><line class="cls-4" x1="358.62" y1="137.86" x2="365.41" y2="110.2"/><line class="cls-4" x1="365.29" y1="134.1" x2="262.74" y2="179.96"/><line class="cls-4" x1="299.68" y1="177.24" x2="291.59" y2="157.03"/><line class="cls-4" x1="339.74" y1="124.6" x2="372.62" y2="130.14"/><line class="cls-4" x1="358.62" y1="137.86" x2="317.67" y2="138.58"/><line class="cls-4" x1="330.81" y1="130.08" x2="358.62" y2="137.86"/><line class="cls-4" x1="339.74" y1="124.6" x2="319" y2="163.11"/><line class="cls-4" x1="317.67" y1="138.58" x2="319" y2="163.11"/><line class="cls-4" x1="291.59" y1="157.03" x2="319" y2="163.11"/><line class="cls-4" x1="307.93" y1="145.22" x2="299.68" y2="177.24"/><line class="cls-4" x1="262.74" y1="179.96" x2="281.65" y2="192.82"/><line class="cls-4" x1="299.68" y1="177.24" x2="250.8" y2="190.26"/><line class="cls-4" x1="286.33" y1="187.73" x2="235.68" y2="204.03"/><line class="cls-4" x1="255.79" y1="214.04" x2="262.74" y2="179.96"/><line class="cls-4" x1="264.46" y1="206.23" x2="156.23" y2="292.76"/><line class="cls-4" x1="172.27" y1="306.67" x2="178.8" y2="264.18"/><line class="cls-4" x1="207.99" y1="262.58" x2="191.46" y2="249.49"/><line class="cls-4" x1="251.35" y1="216.71" x2="231.62" y2="207.88"/><line class="cls-4" x1="255.79" y1="214.04" x2="219.81" y2="219.41"/><line class="cls-4" x1="235.68" y1="204.03" x2="232.47" y2="236.47"/><line class="cls-4" x1="240.5" y1="228.51" x2="219.81" y2="219.41"/><line class="cls-4" x1="207.99" y1="262.58" x2="219.81" y2="219.41"/><line class="cls-4" x1="222.25" y1="247.02" x2="198.1" y2="242.12"/><line class="cls-4" x1="194.36" y1="278.45" x2="191.46" y2="249.49"/><line class="cls-4" x1="156.23" y1="292.76" x2="177.42" y2="299.78"/><line class="cls-4" x1="185.91" y1="288.85" x2="178.8" y2="264.18"/><line class="cls-4" x1="143.66" y1="310.29" x2="185.91" y2="288.85"/><line class="cls-4" x1="156.23" y1="292.76" x2="129.38" y2="374.74"/><line class="cls-4" x1="156.75" y1="328.78" x2="143.66" y2="310.29"/><line class="cls-4" x1="156.23" y1="292.76" x2="156.75" y2="328.78"/><line class="cls-4" x1="172.27" y1="306.67" x2="116.26" y2="354.29"/><line class="cls-4" x1="130.36" y1="330.48" x2="146.64" y2="344.52"/><line class="cls-4" x1="142.81" y1="353.32" x2="116.26" y2="354.29"/><line class="cls-4" x1="127.53" y1="378.31" x2="118.82" y2="353.81"/><line class="cls-4" x1="129.38" y1="374.74" x2="104.87" y2="376.1"/><line class="cls-4" x1="109.93" y1="366.06" x2="129.38" y2="374.74"/><line class="cls-4" x1="104.87" y1="376.1" x2="96.07" y2="466.74"/><line class="cls-4" x1="123.98" y1="385.41" x2="92.24" y2="404.64"/><line class="cls-4" x1="108.54" y1="421.42" x2="104.87" y2="376.1"/><line class="cls-4" x1="117.13" y1="400.14" x2="96.2" y2="395.02"/><line class="cls-4" x1="108.54" y1="421.42" x2="92.24" y2="404.64"/><line class="cls-4" x1="96.07" y1="466.74" x2="84.41" y2="426.52"/><line class="cls-4" x1="108.54" y1="421.42" x2="74.8" y2="466.32"/><line class="cls-4" x1="100.39" y1="447.19" x2="79.44" y2="443.87"/><line class="cls-4" x1="84.41" y1="426.52" x2="108.54" y2="421.42"/><line class="cls-4" x1="87.55" y1="417.18" x2="93.26" y2="497.26"/><line class="cls-4" x1="94.72" y1="475.59" x2="72.64" y2="485.39"/><line class="cls-4" x1="74.8" y1="466.32" x2="93.26" y2="497.26"/><line class="cls-4" x1="72.38" y1="503.82" x2="93.26" y2="497.26"/><line class="cls-4" x1="121.72" y1="566.45" x2="73.82" y2="519.07"/><line class="cls-4" x1="72.38" y1="503.82" x2="94.45" y2="477.78"/><line class="cls-4" x1="72.64" y1="485.39" x2="93.26" y2="512.32"/><line class="cls-4" x1="73.82" y1="519.07" x2="93.26" y2="512.32"/><line class="cls-4" x1="80.63" y1="544.75" x2="93.26" y2="512.32"/><line class="cls-4" x1="115.78" y1="561.18" x2="90.4" y2="563.28"/><line class="cls-4" x1="106.67" y1="547.15" x2="84.03" y2="552.35"/><line class="cls-4" x1="80.63" y1="544.75" x2="115.78" y2="561.18"/><line class="cls-4" x1="180.98" y1="604.78" x2="134.5" y2="574.47"/><line class="cls-4" x1="108.11" y1="582.48" x2="115.78" y2="561.18"/><line class="cls-4" x1="144.27" y1="578.5" x2="113.38" y2="586.4"/><line class="cls-4" x1="125.59" y1="569.29" x2="113.38" y2="586.4"/><line class="cls-4" x1="90.4" y1="563.28" x2="144.27" y2="578.5"/><line class="cls-4" x1="131.18" y1="596.01" x2="125.59" y2="569.29"/><line class="cls-4" x1="164.79" y1="583.83" x2="163.27" y2="603.92"/><line class="cls-4" x1="144.27" y1="578.5" x2="131.18" y2="596.01"/><line class="cls-4" x1="164.79" y1="583.83" x2="131.18" y2="596.01"/><line class="cls-4" x1="236.04" y1="596.68" x2="164.79" y2="583.83"/><line class="cls-4" x1="180.98" y1="604.78" x2="179.32" y2="583.83"/><line class="cls-4" x1="235.39" y1="575.06" x2="203.45" y2="603.2"/><line class="cls-4" x1="249.41" y1="592.77" x2="198.77" y2="582.65"/><line class="cls-4" x1="180.98" y1="604.78" x2="235.39" y2="575.06"/><line class="cls-4" x1="163.27" y1="603.92" x2="125.59" y2="569.29"/><line class="cls-4" x1="249.41" y1="592.77" x2="268.57" y2="563.44"/><line class="cls-4" x1="235.39" y1="575.06" x2="249.41" y2="592.77"/><line class="cls-4" x1="274.22" y1="583.83" x2="235.39" y2="575.06"/><line class="cls-4" x1="294.04" y1="551.92" x2="274.22" y2="583.83"/><line class="cls-4" x1="297.92" y1="573.39" x2="268.57" y2="563.44"/><line class="cls-4" x1="274.22" y1="583.83" x2="251.17" y2="570.04"/><line class="cls-4" x1="297.92" y1="573.39" x2="251.17" y2="570.04"/><line class="cls-4" x1="294.04" y1="551.92" x2="310.61" y2="567.07"/><line class="cls-4" x1="297.92" y1="573.39" x2="309.36" y2="543.96"/><line class="cls-4" x1="326.13" y1="558.67" x2="309.36" y2="543.96"/><line class="cls-4" x1="310.61" y1="567.07" x2="334.42" y2="529.32"/><line class="cls-4" x1="338.64" y1="551.32" x2="309.36" y2="543.96"/><line class="cls-4" x1="310.61" y1="567.07" x2="309.36" y2="543.96"/><line class="cls-4" x1="334.42" y1="529.32" x2="351.48" y2="543.37"/><line class="cls-4" x1="338.64" y1="551.32" x2="346.25" y2="521.72"/><line class="cls-4" x1="376.47" y1="526.37" x2="349.32" y2="522.15"/><line class="cls-4" x1="362.15" y1="536.35" x2="346.25" y2="521.72"/><line class="cls-4" x1="351.48" y1="543.37" x2="359.7" y2="512.53"/><line class="cls-4" x1="385.56" y1="519.7" x2="359.7" y2="512.53"/><line class="cls-4" x1="376.47" y1="526.37" x2="376.59" y2="500.17"/><line class="cls-4" x1="397.1" y1="510.87" x2="362.9" y2="510.26"/><line class="cls-4" x1="388.05" y1="491.24" x2="397.1" y2="510.87"/><line class="cls-4" x1="376.59" y1="500.17" x2="408.14" y2="502.01"/><line class="cls-4" x1="457.56" y1="457.17" x2="376.59" y2="500.17"/><line class="cls-4" x1="465.83" y1="417.95" x2="457.56" y2="457.17"/><line class="cls-4" x1="548.01" y1="344.5" x2="416.06" y2="467.54"/><line class="cls-4" x1="602.59" y1="210.12" x2="569.91" y2="252.15"/><line class="cls-4" x1="581.14" y1="210.73" x2="571.53" y2="302.43"/><line class="cls-4" x1="587.74" y1="265.11" x2="533.85" y2="326.94"/><line class="cls-4" x1="560.17" y1="323.96" x2="514.32" y2="357.03"/><line class="cls-4" x1="488.67" y1="423.96" x2="559.75" y2="277.53"/><line class="cls-4" x1="417.07" y1="494.55" x2="419.83" y2="464.02"/><line class="cls-4" x1="457.56" y1="457.17" x2="419.83" y2="464.02"/><line class="cls-4" x1="424.25" y1="488.36" x2="410.2" y2="472.73"/><line class="cls-4" x1="398.65" y1="482.6" x2="408.14" y2="502.01"/><line class="cls-4" x1="417.07" y1="494.55" x2="398.65" y2="482.6"/><line class="cls-4" x1="457.56" y1="457.17" x2="438.7" y2="446.27"/><line class="cls-4" x1="474.8" y1="439.3" x2="438.7" y2="446.27"/><line class="cls-4" x1="472.05" y1="410.96" x2="474.8" y2="439.3"/><line class="cls-4" x1="488.67" y1="423.96" x2="463.13" y2="423.64"/><line class="cls-4" x1="438.7" y1="446.27" x2="448.13" y2="466.42"/><line class="cls-4" x1="517.31" y1="388.91" x2="496.34" y2="381.5"/><line class="cls-4" x1="524.21" y1="379.82" x2="482.03" y2="399.29"/><line class="cls-4" x1="488.67" y1="423.96" x2="496.34" y2="381.5"/><line class="cls-4" x1="539.03" y1="358.43" x2="520.77" y2="347.57"/><line class="cls-4" x1="567.14" y1="311.09" x2="554.22" y2="288.93"/><line class="cls-4" x1="563.58" y1="317.78" x2="538.33" y2="319.36"/><line class="cls-4" x1="527.82" y1="374.66" x2="520.77" y2="347.57"/><line class="cls-4" x1="548.01" y1="344.5" x2="538.33" y2="319.36"/><line class="cls-4" x1="563.58" y1="317.78" x2="554.22" y2="288.93"/><line class="cls-4" x1="580.3" y1="283.55" x2="554.22" y2="288.93"/><line class="cls-4" x1="587.74" y1="265.11" x2="576.33" y2="242.84"/><line class="cls-4" x1="602.59" y1="210.12" x2="582.04" y2="205.27"/><line class="cls-4" x1="605.13" y1="179.32" x2="576.33" y2="242.84"/><line class="cls-4" x1="583.23" y1="163.77" x2="602.77" y2="152.94"/><line class="cls-4" x1="605.13" y1="179.32" x2="571.11" y2="127.37"/><line class="cls-4" x1="604.39" y1="195.64" x2="583.44" y2="202.28"/><line class="cls-4" x1="582.04" y1="205.27" x2="596.22" y2="239.13"/><line class="cls-4" x1="590.58" y1="257.21" x2="576.33" y2="238.82"/><line class="cls-4" x1="562.83" y1="270.42" x2="596.22" y2="239.13"/><line class="cls-4" x1="582.04" y1="279.49" x2="562.83" y2="270.42"/><line class="cls-4" x1="587.74" y1="265.11" x2="555.53" y2="286.24"/><line class="cls-4" x1="548.01" y1="344.5" x2="555.53" y2="286.24"/><line class="cls-4" x1="14.5" y1="290.1" x2="28.9" y2="308.44"/><line class="cls-4" x1="6.88" y1="307.48" x2="38.61" y2="290.93"/><line class="cls-4" x1="29.89" y1="267.47" x2="42.16" y2="286.18"/><line class="cls-4" x1="14.5" y1="290.1" x2="76.84" y2="254.45"/><line class="cls-4" x1="61.24" y1="239.71" x2="53.83" y2="273.26"/><line class="cls-4" x1="39.1" y1="258.29" x2="56.75" y2="270.5"/><line class="cls-4" x1="12.19" y1="294.5" x2="24.3" y2="323.85"/><line class="cls-4" x1="38.61" y1="290.93" x2="2.29" y2="333.11"/><line class="cls-4" x1="5.16" y1="315.81" x2="24.3" y2="323.85"/><line class="cls-4" x1="2.29" y1="333.11" x2="28.4" y2="361.88"/><line class="cls-4" x1="8.99" y1="369.93" x2="24.3" y2="323.85"/><g class="cls-5"><line class="cls-6" x1="8.99" y1="369.93" x2="37.29" y2="378.64"/></g><line class="cls-4" x1="18.49" y1="388.21" x2="31.61" y2="368.95"/><line class="cls-4" x1="22.33" y1="393.86" x2="45.98" y2="390.44"/><line class="cls-4" x1="37.29" y1="378.64" x2="75.69" y2="441.33"/><line class="cls-4" x1="18.49" y1="388.21" x2="70.33" y2="412.3"/><line class="cls-4" x1="48.48" y1="422.57" x2="28.4" y2="361.88"/><line class="cls-4" x1="32.75" y1="406.83" x2="76.88" y2="417.03"/><line class="cls-4" x1="57.83" y1="429.14" x2="60.84" y2="405.3"/><line class="cls-4" x1="76.88" y1="417.03" x2="57.83" y2="429.14"/><line class="cls-4" x1="75.69" y1="441.33" x2="83.16" y2="421.22"/><line class="cls-4" x1="76.88" y1="417.03" x2="119.28" y2="463.73"/><line class="cls-4" x1="75.69" y1="441.33" x2="108.17" y2="435.43"/><line class="cls-4" x1="89.76" y1="425.32" x2="82.08" y2="445.18"/><line class="cls-4" x1="76.88" y1="417.03" x2="186.64" y2="486.05"/><line class="cls-4" x1="89.24" y1="449.22" x2="117.33" y2="439.86"/><line class="cls-4" x1="3.03" y1="347.49" x2="57.83" y2="429.14"/><line class="cls-4" x1="2.29" y1="333.11" x2="23.26" y2="335.69"/><line class="cls-4" x1="117.33" y1="439.86" x2="139.58" y2="471.73"/><line class="cls-4" x1="119.28" y1="463.73" x2="146.98" y2="452.07"/><line class="cls-4" x1="139.58" y1="471.73" x2="167.31" y2="458.88"/><line class="cls-4" x1="153.81" y1="454.49" x2="158.3" y2="478.07"/><line class="cls-4" x1="182.67" y1="463.32" x2="158.3" y2="478.07"/><line class="cls-4" x1="175.29" y1="461.26" x2="280.23" y2="501.35"/><line class="cls-4" x1="252.19" y1="477.15" x2="243.62" y2="497.16"/><line class="cls-4" x1="186.64" y1="486.05" x2="167.31" y2="458.88"/><line class="cls-4" x1="182.67" y1="463.32" x2="212.13" y2="491.77"/><line class="cls-4" x1="196.82" y1="488.49" x2="182.67" y2="463.32"/><line class="cls-4" x1="186.64" y1="486.05" x2="228.53" y2="473.48"/><line class="cls-4" x1="212.13" y1="491.77" x2="228.53" y2="473.48"/><line class="cls-4" x1="243.62" y1="497.16" x2="228.53" y2="473.48"/><line class="cls-4" x1="223.71" y1="493.96" x2="252.19" y2="477.15"/><line class="cls-4" x1="280.23" y1="501.35" x2="275.95" y2="478.88"/><line class="cls-4" x1="252.19" y1="477.15" x2="295.95" y2="502.51"/><line class="cls-4" x1="269.04" y1="479.18" x2="316.38" y2="503.46"/><line class="cls-4" x1="309.24" y1="482.16" x2="280.23" y2="501.35"/><line class="cls-4" x1="297.59" y1="481.56" x2="435.3" y2="496.9"/><line class="cls-4" x1="433.8" y1="475.73" x2="399.14" y2="501.15"/><line class="cls-4" x1="377.36" y1="481.64" x2="379.8" y2="502.58"/><line class="cls-4" x1="314.27" y1="483.42" x2="321.97" y2="503.61"/><line class="cls-4" x1="309.24" y1="482.16" x2="338.48" y2="503.81"/><line class="cls-4" x1="316.38" y1="503.46" x2="341.59" y2="482.79"/><line class="cls-4" x1="330.29" y1="482.75" x2="338.48" y2="503.81"/><line class="cls-4" x1="377.36" y1="481.64" x2="338.48" y2="503.81"/><line class="cls-4" x1="356.28" y1="482.55" x2="369.89" y2="503.1"/><line class="cls-4" x1="398.22" y1="480.06" x2="379.8" y2="502.58"/><line class="cls-4" x1="435.3" y1="496.9" x2="425.28" y2="476.95"/><line class="cls-4" x1="411.55" y1="478.68" x2="399.14" y2="501.15"/><line class="cls-4" x1="456.59" y1="493.39" x2="411.55" y2="478.68"/><line class="cls-4" x1="435.3" y1="496.9" x2="512.25" y2="457.92"/><line class="cls-4" x1="460.4" y1="471.06" x2="456.59" y2="493.39"/><line class="cls-4" x1="435.3" y1="496.9" x2="460.4" y2="471.06"/><line class="cls-4" x1="433.8" y1="475.73" x2="507.07" y2="481.65"/><line class="cls-4" x1="480.27" y1="488.52" x2="478.69" y2="467.08"/><line class="cls-4" x1="487.62" y1="463.57" x2="507.07" y2="481.65"/><line class="cls-4" x1="516.09" y1="456.7" x2="504.92" y2="480.19"/><line class="cls-4" x1="512.25" y1="457.92" x2="530.55" y2="474.29"/><line class="cls-4" x1="519.87" y1="477.81" x2="512.25" y2="457.92"/><line class="cls-4" x1="530.55" y1="474.29" x2="600.87" y2="416.41"/><line class="cls-4" x1="523.62" y1="454.19" x2="559.66" y2="463.03"/><line class="cls-4" x1="560" y1="439.65" x2="530.55" y2="474.29"/><line class="cls-4" x1="538.88" y1="448.62" x2="550.06" y2="467.03"/><line class="cls-4" x1="560" y1="439.65" x2="559.66" y2="463.03"/><line class="cls-4" x1="600.87" y1="416.41" x2="580.67" y2="453.1"/><line class="cls-4" x1="560" y1="439.65" x2="615.61" y2="431.76"/><line class="cls-4" x1="583.99" y1="427.19" x2="596.45" y2="444.35"/><line class="cls-4" x1="580.67" y1="453.1" x2="560" y2="439.65"/><line class="cls-4" x1="571.85" y1="457.48" x2="624.44" y2="396.83"/><line class="cls-4" x1="608.08" y1="411.11" x2="630.62" y2="419.8"/><line class="cls-4" x1="615.61" y1="431.76" x2="624.44" y2="396.83"/><line class="cls-4" x1="643.84" y1="406.95" x2="624.44" y2="396.83"/><line class="cls-4" x1="653.23" y1="327.78" x2="653.6" y2="395.15"/><line class="cls-4" x1="643.84" y1="406.95" x2="609.82" y2="409.76"/><line class="cls-4" x1="630.62" y1="419.8" x2="635.09" y2="386.18"/><line class="cls-4" x1="653.6" y1="395.15" x2="635.09" y2="386.18"/><line class="cls-4" x1="666.94" y1="372.17" x2="635.09" y2="386.18"/><line class="cls-4" x1="653.71" y1="335.7" x2="673.13" y2="352.16"/><line class="cls-4" x1="650.23" y1="352.06" x2="669.92" y2="364.4"/><line class="cls-4" x1="666.94" y1="372.17" x2="653.71" y2="335.7"/><line class="cls-4" x1="638.43" y1="258.77" x2="649.87" y2="313.07"/><line class="cls-4" x1="674.19" y1="326.06" x2="653.71" y2="335.7"/><line class="cls-4" x1="645.81" y1="303.31" x2="673.24" y2="319.57"/><line class="cls-4" x1="652.51" y1="323.03" x2="673.24" y2="319.57"/><line class="cls-4" x1="673.13" y1="352.16" x2="645.81" y2="303.31"/><line class="cls-4" x1="667.45" y1="300.18" x2="652.51" y2="323.03"/><line class="cls-4" x1="635.07" y1="285.03" x2="650.35" y2="271.9"/><line class="cls-4" x1="645.81" y1="303.31" x2="667.45" y2="300.18"/><line class="cls-4" x1="635.07" y1="285.03" x2="667.45" y2="300.18"/><line class="cls-4" x1="593.78" y1="225.57" x2="635.07" y2="285.03"/><line class="cls-4" x1="638.43" y1="258.77" x2="624.79" y2="274.76"/><line class="cls-4" x1="578.95" y1="241.31" x2="621.43" y2="244"/><line class="cls-4" x1="581.56" y1="218.88" x2="610.21" y2="261.84"/><line class="cls-4" x1="638.43" y1="258.77" x2="578.95" y2="241.31"/><line class="cls-4" x1="650.35" y1="271.9" x2="652.51" y2="323.03"/><line class="cls-4" x1="581.56" y1="218.88" x2="547.27" y2="226.06"/><line class="cls-4" x1="578.95" y1="241.31" x2="581.56" y2="218.88"/><line class="cls-4" x1="557.69" y1="207.66" x2="578.95" y2="241.31"/><line class="cls-4" x1="521.12" y1="216.2" x2="557.69" y2="207.66"/><line class="cls-4" x1="533.55" y1="198.27" x2="547.27" y2="226.06"/><line class="cls-4" x1="557.69" y1="207.66" x2="564.24" y2="233.7"/><line class="cls-4" x1="533.55" y1="198.27" x2="564.24" y2="233.7"/><line class="cls-4" x1="521.12" y1="216.2" x2="520.11" y2="193.77"/><line class="cls-4" x1="533.55" y1="198.27" x2="504.65" y2="210.99"/><line class="cls-4" x1="503.2" y1="188.73" x2="504.65" y2="210.99"/><line class="cls-4" x1="520.11" y1="193.77" x2="476.58" y2="203.63"/><line class="cls-4" x1="489.15" y1="185.09" x2="504.65" y2="210.99"/><line class="cls-4" x1="520.11" y1="193.77" x2="504.65" y2="210.99"/><line class="cls-4" x1="476.58" y1="203.63" x2="474.45" y2="181.63"/><line class="cls-4" x1="489.15" y1="185.09" x2="462.83" y2="200.64"/><line class="cls-4" x1="444.76" y1="175.98" x2="460.98" y2="198.16"/><line class="cls-4" x1="461.94" y1="179.05" x2="462.83" y2="200.64"/><line class="cls-4" x1="474.45" y1="181.63" x2="446.83" y2="197.62"/><line class="cls-4" x1="433.61" y1="174.26" x2="446.83" y2="197.62"/><line class="cls-4" x1="444.76" y1="175.98" x2="426.15" y2="194.42"/><line class="cls-4" x1="419.21" y1="172.35" x2="442.97" y2="196.97"/><line class="cls-4" x1="411.73" y1="192.63" x2="419.21" y2="172.35"/><line class="cls-4" x1="426.15" y1="194.42" x2="405.14" y2="170.81"/><line class="cls-4" x1="338.48" y1="167.58" x2="426.15" y2="194.42"/><line class="cls-4" x1="304.91" y1="189.45" x2="338.48" y2="167.58"/><line class="cls-4" x1="194.86" y1="183.29" x2="375.16" y2="189.59"/><line class="cls-4" x1="61.24" y1="239.71" x2="114.07" y2="233.1"/><line class="cls-4" x1="76.84" y1="254.45" x2="148.48" y2="196.4"/><line class="cls-4" x1="110.63" y1="211.33" x2="192.46" y2="205.71"/><line class="cls-4" x1="171.74" y1="189.21" x2="227.54" y2="198.25"/><line class="cls-4" x1="293.01" y1="169.06" x2="139.2" y2="222.33"/><line class="cls-4" x1="393.55" y1="169.77" x2="370.01" y2="189.41"/><line class="cls-4" x1="338.48" y1="167.58" x2="370.01" y2="189.41"/><line class="cls-4" x1="384.1" y1="169.08" x2="382.98" y2="190.06"/><line class="cls-4" x1="398.12" y1="191.25" x2="405.14" y2="170.81"/><line class="cls-4" x1="393.55" y1="169.77" x2="398.12" y2="191.25"/><line class="cls-4" x1="338.48" y1="167.58" x2="344.12" y2="188.61"/><line class="cls-4" x1="313.66" y1="168.02" x2="344.12" y2="188.61"/><line class="cls-4" x1="295.57" y1="190" x2="313.66" y2="168.02"/><line class="cls-4" x1="293.01" y1="169.06" x2="310.84" y2="187.34"/><line class="cls-4" x1="344.12" y1="188.61" x2="351.7" y2="167.7"/><line class="cls-4" x1="247.97" y1="173.59" x2="257.56" y2="193.66"/><line class="cls-4" x1="236.66" y1="175.14" x2="280.25" y2="191.2"/><line class="cls-4" x1="293.01" y1="169.06" x2="257.56" y2="193.66"/><line class="cls-4" x1="211.07" y1="179.78" x2="216.29" y2="200.38"/><line class="cls-4" x1="157.71" y1="193.39" x2="151.18" y2="218.19"/><line class="cls-4" x1="164.96" y1="191.17" x2="183.93" y2="207.91"/><line class="cls-4" x1="230.47" y1="176.23" x2="216.29" y2="200.38"/><line class="cls-4" x1="194.86" y1="183.29" x2="183.93" y2="207.91"/><line class="cls-4" x1="164.96" y1="191.17" x2="151.18" y2="218.19"/><line class="cls-4" x1="128.93" y1="203.55" x2="151.18" y2="218.19"/><line class="cls-4" x1="110.63" y1="211.33" x2="102.95" y2="235.14"/><line class="cls-4" x1="61.24" y1="239.71" x2="72.35" y2="257.67"/><line class="cls-4" x1="37.67" y1="259.7" x2="102.95" y2="235.14"/><line class="cls-4" x1="42.16" y1="286.18" x2="20.69" y2="280.01"/><line class="cls-4" x1="37.67" y1="259.7" x2="25" y2="320.49"/><line class="cls-4" x1="49.73" y1="248.68" x2="69.24" y2="258.8"/><line class="cls-4" x1="72.35" y1="257.67" x2="86.26" y2="223.71"/><line class="cls-4" x1="103.04" y1="214.91" x2="100.1" y2="237.98"/><line class="cls-4" x1="132" y1="225.19" x2="86.26" y2="223.71"/><line class="cls-4" x1="124.83" y1="205.19" x2="132" y2="225.19"/><line class="cls-4" x1="110.63" y1="211.33" x2="148.35" y2="219.17"/><line class="cls-4" x1="194.86" y1="183.29" x2="148.35" y2="219.17"/></g></g></svg>