<svg xmlns="http://www.w3.org/2000/svg" viewBox="0 0 681.1 596.21"><defs><style>.cls-1,.cls-3{fill:#fff;}.cls-1{fill-opacity:0.5;}.cls-1,.cls-2{stroke:#fff;stroke-miterlimit:10;stroke-width:4px;}.cls-2{fill:none;opacity:0.5;}</style></defs><title>IoT@SVG</title><g id="Layer_2" data-name="Layer 2"><g id="IoT_2" data-name="IoT 2"><path class="cls-1" d="M541.56,446.34h-402C63.69,446.34,2,384.64,2,308.81c0-72.37,56.19-131.87,127.24-137.15C134.54,77.2,213.05,2,308.81,2,373.9,2,431.08,33.51,463,86.64h4.47c60.82,0,101.28,37.19,105.44,95.65,61.19,5.3,106.15,57.91,106.15,126.52C679.1,384.64,617.4,446.34,541.56,446.34Z"/><line class="cls-2" x1="241.9" y1="14.91" x2="340.55" y2="446.34"/><line class="cls-2" x1="376.15" y1="14.16" x2="340.55" y2="446.34"/><line class="cls-2" x1="149.98" y1="97.54" x2="340.55" y2="446.34"/><line class="cls-2" x1="61.04" y1="195.93" x2="340.55" y2="446.34"/><line class="cls-2" x1="490.01" y1="88.47" x2="340.55" y2="446.34"/><line class="cls-2" x1="597.16" y1="187.09" x2="340.55" y2="446.34"/><line class="cls-2" x1="8.38" y1="267.41" x2="195.74" y2="446.34"/><line class="cls-2" x1="102.06" y1="176.47" x2="195.74" y2="446.34"/><line class="cls-2" x1="181.38" y1="55.09" x2="195.74" y2="446.34"/><line class="cls-2" x1="286.99" y1="2" x2="195.74" y2="446.34"/><line class="cls-2" x1="413.51" y1="33.79" x2="195.74" y2="446.34"/><line class="cls-2" x1="518.68" y1="97.34" x2="195.74" y2="446.34"/><line class="cls-2" x1="499.24" y1="446.34" x2="572.94" y2="182.29"/><line class="cls-2" x1="463.03" y1="86.64" x2="499.24" y2="446.34"/><line class="cls-2" x1="334.6" y1="2" x2="499.24" y2="446.34"/><line class="cls-2" x1="205.58" y1="34.66" x2="499.24" y2="446.34"/><line class="cls-2" x1="131.51" y1="151.65" x2="499.24" y2="446.34"/><line class="cls-2" x1="35.76" y1="218.65" x2="499.24" y2="446.34"/><line class="cls-2" x1="624.66" y1="418.29" x2="614.68" y2="194.31"/><line class="cls-2" x1="528.57" y1="102.8" x2="624.66" y2="418.29"/><line class="cls-2" x1="428.64" y1="45.57" x2="624.66" y2="418.29"/><line class="cls-2" x1="298.23" y1="2" x2="624.66" y2="418.29"/><line class="cls-2" x1="188.56" y1="44.98" x2="624.66" y2="418.29"/><line class="cls-2" x1="129.24" y1="171.66" x2="624.66" y2="418.29"/><line class="cls-2" x1="14.9" y1="250.72" x2="624.66" y2="418.29"/><line class="cls-2" x1="48.05" y1="411.4" x2="3.67" y2="287.5"/><line class="cls-2" x1="52.25" y1="202.59" x2="48.05" y2="411.4"/><line class="cls-2" x1="138.86" y1="123" x2="48.05" y2="411.4"/><line class="cls-2" x1="261.77" y1="8.26" x2="48.05" y2="411.4"/><line class="cls-2" x1="421.04" y1="39.29" x2="48.05" y2="411.4"/><line class="cls-2" x1="528.57" y1="102.8" x2="48.05" y2="411.4"/><line class="cls-2" x1="565.88" y1="149.1" x2="48.05" y2="411.4"/><line class="cls-2" x1="650.88" y1="224.17" x2="48.05" y2="411.4"/><line class="cls-2" x1="79.37" y1="185.18" x2="102.06" y2="441.13"/><line class="cls-2" x1="138.86" y1="123" x2="249.96" y2="446.34"/><line class="cls-2" x1="272.39" y1="5.72" x2="410.64" y2="446.34"/><line class="cls-2" x1="502.09" y1="91.19" x2="552.98" y2="445.85"/><line class="cls-2" x1="605" y1="189.87" x2="659.78" y2="378.96"/><line class="cls-2" x1="679.1" y1="299" x2="523.71" y2="446.34"/><line class="cls-2" x1="550.45" y1="122.1" x2="439.73" y2="446.34"/><line class="cls-2" x1="393.72" y1="21.97" x2="376.95" y2="446.34"/><line class="cls-2" x1="324.07" y1="2.6" x2="274.43" y2="446.34"/><line class="cls-2" x1="161.59" y1="78.67" x2="173.26" y2="446.34"/><line class="cls-2" x1="224.47" y1="23.04" x2="128.29" y2="446.34"/><line class="cls-2" x1="8.13" y1="349.45" x2="593.32" y2="436.22"/><line class="cls-2" x1="23.76" y1="234.69" x2="674.47" y2="271.94"/><line class="cls-2" x1="665.01" y1="246.43" x2="376.95" y2="446.34"/><line class="cls-2" x1="8.38" y1="267.41" x2="463.03" y2="86.64"/><line class="cls-2" x1="444.42" y1="61.23" x2="226.82" y2="446.34"/><line class="cls-2" x1="161.59" y1="78.67" x2="439.73" y2="446.34"/><line class="cls-2" x1="362.9" y1="9.7" x2="249.96" y2="446.34"/><line class="cls-2" x1="3.67" y1="287.5" x2="173.26" y2="446.34"/><line class="cls-2" x1="79.37" y1="185.18" x2="306.97" y2="446.34"/><line class="cls-2" x1="675.68" y1="339.2" x2="439.73" y2="446.34"/><line class="cls-2" x1="650.88" y1="224.17" x2="659.78" y2="378.96"/><line class="cls-2" x1="48.05" y1="411.4" x2="173.26" y2="446.34"/><line class="cls-2" x1="463.03" y1="86.64" x2="131.51" y2="151.65"/><line class="cls-2" x1="167.42" y1="66.14" x2="593.32" y2="436.22"/><line class="cls-2" x1="659.78" y1="378.96" x2="234.55" y2="18.06"/><line class="cls-2" x1="463.03" y1="86.64" x2="280.38" y2="446.34"/><path class="cls-3" d="M433.75,469.26H243.32V278.82H433.75ZM264.48,448.1H412.59V300H264.48Z"/><rect class="cls-3" x="264.48" y="236.51" width="21.16" height="52.9"/><rect class="cls-3" x="306.8" y="236.51" width="21.16" height="52.9"/><rect class="cls-3" x="349.12" y="236.51" width="21.16" height="52.9"/><rect class="cls-3" x="349.12" y="458.68" width="21.16" height="52.9"/><rect class="cls-3" x="391.44" y="236.51" width="21.16" height="52.9"/><rect class="cls-3" x="423.17" y="299.98" width="52.9" height="21.16"/><rect class="cls-3" x="423.17" y="342.3" width="52.9" height="21.16"/><rect class="cls-3" x="423.17" y="384.62" width="52.9" height="21.16"/><rect class="cls-3" x="423.17" y="426.94" width="52.9" height="21.16"/><rect class="cls-3" x="201" y="299.98" width="52.9" height="21.16"/><rect class="cls-3" x="201" y="342.3" width="52.9" height="21.16"/><rect class="cls-3" x="201" y="384.62" width="52.9" height="21.16"/><rect class="cls-3" x="201" y="426.94" width="52.9" height="21.16"/><path class="cls-3" d="M370.28,405.78H306.8V342.3h63.48ZM328,384.62h21.16V363.46H328Z"/><rect class="cls-3" x="264.48" y="194.19" width="21.16" height="21.16"/><rect class="cls-3" x="306.8" y="194.19" width="21.16" height="21.16"/><rect class="cls-3" x="306.8" y="151.87" width="21.16" height="21.16"/><rect class="cls-3" x="349.12" y="151.87" width="21.16" height="21.16"/><rect class="cls-3" x="349.12" y="194.19" width="21.16" height="21.16"/><rect class="cls-3" x="391.44" y="194.19" width="21.16" height="21.16"/><rect class="cls-3" x="391.44" y="458.68" width="21.16" height="52.9"/><rect class="cls-3" x="306.8" y="458.68" width="21.16" height="52.9"/><rect class="cls-3" x="264.48" y="458.68" width="21.16" height="52.9"/><rect class="cls-3" x="391.44" y="532.73" width="21.16" height="21.16"/><rect class="cls-3" x="349.12" y="532.73" width="21.16" height="21.16"/><rect class="cls-3" x="349.12" y="575.05" width="21.16" height="21.16"/><rect class="cls-3" x="306.8" y="575.05" width="21.16" height="21.16"/><rect class="cls-3" x="306.8" y="532.73" width="21.16" height="21.16"/><rect class="cls-3" x="264.48" y="532.73" width="21.16" height="21.16"/><rect class="cls-3" x="158.68" y="299.98" width="21.16" height="21.16"/><rect class="cls-3" x="116.37" y="299.98" width="21.16" height="21.16"/><rect class="cls-3" x="158.68" y="342.3" width="21.16" height="21.16"/><rect class="cls-3" x="116.37" y="342.3" width="21.16" height="21.16"/><rect class="cls-3" x="158.68" y="384.62" width="21.16" height="21.16"/><rect class="cls-3" x="74.05" y="299.98" width="21.16" height="21.16"/><rect class="cls-3" x="497.23" y="299.98" width="21.16" height="21.16"/><rect class="cls-3" x="539.55" y="299.98" width="21.16" height="21.16"/><rect class="cls-3" x="497.23" y="342.3" width="21.16" height="21.16"/><rect class="cls-3" x="539.55" y="342.3" width="21.16" height="21.16"/><rect class="cls-3" x="497.23" y="384.62" width="21.16" height="21.16"/><rect class="cls-3" x="581.87" y="299.98" width="21.16" height="21.16"/></g></g></svg>